<svg width="20" height="20" viewBox="0 0 20 20" fill="none" xmlns="http://www.w3.org/2000/svg">
<g clip-path="url(#clip0_74_474)">
<path d="M10.0075 12.0025C11.1127 12.0025 12.0086 11.1069 12.0086 10.0021C12.0086 8.8973 11.1127 8.0017 10.0075 8.0017C8.90235 8.0017 8.00642 8.8973 8.00642 10.0021C8.00642 11.1069 8.90235 12.0025 10.0075 12.0025Z" fill="#003178"/>
<path d="M17.8639 10.0021C20.244 6.19925 20.6801 2.8083 18.942 1.06984C17.1549 -0.717613 13.6987 -0.196774 10.0075 2.12151C6.31634 -0.195774 2.86117 -0.715614 1.07308 1.06984C-0.71701 2.85928 -0.191983 6.32222 2.13613 10.0191C1.21709 11.4916 0.553053 12.9452 0.234038 14.2528C-0.387993 16.806 0.347043 18.2076 1.07308 18.9333C1.78911 19.6491 2.78216 20 3.96922 20C5.66931 20 7.76641 19.2712 10.0075 17.8677C12.2476 19.2682 14.3477 19.996 16.0478 19.996C17.2349 19.996 18.2289 19.6461 18.942 18.9333C20.6811 17.1959 20.245 13.8049 17.8639 10.0021ZM2.48815 17.5198C1.79511 16.826 1.99713 15.4734 2.17813 14.7266C2.39614 13.8319 2.81517 12.8392 3.39219 11.8085C4.05623 12.6653 4.80326 13.523 5.64431 14.3637C5.83932 14.5587 6.09533 14.6566 6.35134 14.6566C6.60735 14.6566 6.86337 14.5587 7.05838 14.3637C7.4494 13.9729 7.4494 13.3401 7.05838 12.9492C4.95727 10.8488 3.35219 8.52754 2.53815 6.41119C1.84612 4.61174 1.82712 3.1442 2.48815 2.4834C3.36719 1.60567 5.5913 1.94457 8.19343 3.39212C7.33739 4.05691 6.48235 4.80069 5.64331 5.63943C5.25229 6.03031 5.25229 6.66311 5.64331 7.05399C6.03433 7.44487 6.66736 7.44487 7.05838 7.05399C8.03242 6.08029 9.02947 5.24955 10.0075 4.55076C10.9856 5.24855 11.9826 6.08029 12.9567 7.05399C13.3477 7.44487 13.9807 7.44487 14.3717 7.05399C14.7628 6.66311 14.7628 6.03031 14.3717 5.63943C13.5327 4.80069 12.6767 4.05591 11.8216 3.39312C14.4237 1.94457 16.6489 1.60567 17.5279 2.4844C18.5839 3.54107 17.8989 6.40419 15.8618 9.44625C15.8608 9.44825 15.8578 9.45125 15.8578 9.45125L15.8558 9.45425C15.4908 9.99708 15.0848 10.5449 14.6468 11.0827C14.1257 11.7226 13.5577 12.3514 12.9577 12.9502C12.4426 13.464 11.9076 13.9549 11.3676 14.4097C10.7476 14.9306 10.1155 15.4074 9.4885 15.8283C6.42834 17.8867 3.5512 18.5804 2.48815 17.5198ZM17.5279 17.5198C16.6209 18.4275 14.3607 18.0416 11.8076 16.615C12.0906 16.3971 12.3746 16.1752 12.6537 15.9413C13.2377 15.4504 13.8157 14.9196 14.3717 14.3647C15.0188 13.7179 15.6338 13.0391 16.1978 12.3464C16.3438 12.1664 16.4808 11.9845 16.6209 11.8025C18.0489 14.3547 18.4379 16.609 17.5279 17.5198Z" fill="#003178"/>
</g>
<defs>
<clipPath id="clip0_74_474">
<rect width="20" height="20" fill="white"/>
</clipPath>
</defs>
</svg>
