<svg width="20" height="20" viewBox="0 0 20 20" fill="none" xmlns="http://www.w3.org/2000/svg">
<path d="M10 2.5C4.612 2.5 0 8.21714 0 10C0 11.8664 3.546 17.5 10 17.5C16.454 17.5 20 11.8664 20 10C20 8.21714 15.388 2.5 10 2.5ZM10 13.2143C9.40666 13.2143 8.82664 13.0258 8.33329 12.6726C7.83994 12.3194 7.45542 11.8174 7.22836 11.2301C7.0013 10.6427 6.94189 9.99643 7.05764 9.37292C7.1734 8.74941 7.45912 8.17668 7.87868 7.72716C8.29824 7.27763 8.83279 6.9715 9.41473 6.84748C9.99667 6.72345 10.5999 6.78711 11.1481 7.03039C11.6962 7.27367 12.1648 7.68565 12.4944 8.21424C12.8241 8.74282 13 9.36427 13 10C13 10.8525 12.6839 11.67 12.1213 12.2728C11.5587 12.8756 10.7956 13.2143 10 13.2143Z" fill="#003178"/>
</svg>
