<svg width="20" height="20" viewBox="0 0 20 20" fill="none" xmlns="http://www.w3.org/2000/svg">
<path d="M10 10.5263C11.6569 10.5263 13 9.11251 13 7.36846C13 5.62441 11.6569 4.21058 10 4.21058C8.34314 4.21058 7 5.62441 7 7.36846C7 9.11251 8.34314 10.5263 10 10.5263Z" fill="#003178"/>
<path d="M9 13.6842H11C12.0609 13.6842 13.0783 14.1278 13.8284 14.9175C14.5786 15.7071 15 16.778 15 17.8947V20H5V17.8947C5 16.778 5.42143 15.7071 6.17157 14.9175C6.92172 14.1278 7.93913 13.6842 9 13.6842Z" fill="#003178"/>
<path d="M13 7.36846C12.9993 6.62425 12.7483 5.90431 12.2917 5.33616C11.835 4.76801 11.2021 4.38829 10.505 4.26426" fill="#003178"/>
<path d="M14.5 6.46419e-05C13.7815 0.00237674 13.077 0.209012 12.4609 0.598123C11.8448 0.987233 11.34 1.54436 11 2.21058C12.1287 2.45471 13.1428 3.10106 13.8715 4.04065C14.6002 4.98023 14.9987 6.15557 15 7.36846C14.9983 7.70795 14.9648 8.04643 14.9 8.37899C15.9225 8.27657 16.868 7.76293 17.5398 6.94503C18.2115 6.12713 18.5576 5.068 18.5061 3.9882C18.4545 2.90839 18.0093 1.89113 17.263 1.14823C16.5168 0.405338 15.5271 -0.00593086 14.5 6.46419e-05Z" fill="#003178"/>
<path d="M7.366 11.8232C6.51249 11.2605 5.83802 10.4424 5.429 9.47372H5C3.6744 9.47539 2.40356 10.0304 1.46622 11.0171C0.528882 12.0038 0.00158786 13.3415 0 14.7369V16.8421C0 17.1213 0.105357 17.389 0.292893 17.5864C0.480429 17.7838 0.734783 17.8947 1 17.8947H3C3.00228 16.5208 3.42963 15.1851 4.21738 14.0896C5.00513 12.9941 6.11042 12.1985 7.366 11.8232Z" fill="#003178"/>
<path d="M15 9.47372H14.571C14.162 10.4424 13.4875 11.2605 12.634 11.8232C13.8896 12.1985 14.9949 12.9941 15.7826 14.0896C16.5704 15.1851 16.9977 16.5208 17 17.8947H19C19.2652 17.8947 19.5196 17.7838 19.7071 17.5864C19.8946 17.389 20 17.1213 20 16.8421V14.7369C19.9984 13.3415 19.4711 12.0038 18.5338 11.0171C17.5964 10.0304 16.3256 9.47539 15 9.47372Z" fill="#003178"/>
<path d="M5 7.36847C5.00127 6.15557 5.39984 4.98024 6.12849 4.04065C6.85715 3.10107 7.87133 2.45472 9 2.21059C8.67352 1.57248 8.19564 1.03421 7.61289 0.648193C7.03015 0.262172 6.36238 0.0415439 5.67459 0.00778532C4.98681 -0.0259732 4.30243 0.128288 3.68809 0.455552C3.07374 0.782817 2.55036 1.27194 2.16888 1.8753C1.7874 2.47866 1.56083 3.17571 1.51121 3.8986C1.46159 4.62148 1.59062 5.34558 1.88574 6.0004C2.18086 6.65522 2.63201 7.21845 3.19528 7.63528C3.75855 8.05211 4.41475 8.30832 5.1 8.37899C5.03516 8.04643 5.00166 7.70795 5 7.36847Z" fill="#003178"/>
</svg>
